<!DOCTYPE svg PUBLIC "-//W3C//DTD SVG 1.1//EN" "http://www.w3.org/Graphics/SVG/1.1/DTD/svg11.dtd">
<!-- Uploaded to: SVG Repo, www.svgrepo.com, Transformed by: SVG Repo Mixer Tools -->
<svg height="125px" width="125px" version="1.1" id="Capa_1" xmlns="http://www.w3.org/2000/svg" xmlns:xlink="http://www.w3.org/1999/xlink" viewBox="0 0 297 297" xml:space="preserve" fill="#000000">
<g id="SVGRepo_bgCarrier" stroke-width="0"/>
<g id="SVGRepo_tracerCarrier" stroke-linecap="round" stroke-linejoin="round"/>
<g id="SVGRepo_iconCarrier"> <g> <g> <g> <path style="fill:#CBE3E3;" d="M182.199,291.722l67.399-67.399l-16.85-117.947l25.036,12.518 c4.949,2.475,10.967,0.877,14.037-3.728l23.337-35.005c2.901-4.352,2.327-10.147-1.371-13.845l-20.841-20.841 c-15.354-15.354-34.072-26.922-54.671-33.789l-19.225-6.408H97.951l-19.225,6.408c-20.599,6.866-39.317,18.435-54.671,33.789 L3.214,66.316c-3.698,3.698-4.272,9.493-1.371,13.845l23.337,35.005c3.069,4.604,9.087,6.202,14.037,3.728l25.036-12.518 l-16.85,117.947l67.399,67.399H182.199z"/> </g> </g> <g style="opacity:0.6;"> <g> <path style="fill:#BDC3C7;" d="M3.593,82.786l20.461-20.462c15.354-15.354,34.072-26.922,54.671-33.789l19.225-6.408h101.098 l19.225,6.408c20.599,6.867,39.317,18.435,54.671,33.789l20.461,20.462l1.75-2.625c2.901-4.352,2.327-10.147-1.371-13.845 l-20.841-20.841c-15.354-15.354-34.072-26.922-54.671-33.789l-19.225-6.408H97.951l-19.225,6.408 c-20.599,6.867-39.317,18.435-54.671,33.789L3.214,66.316c-3.698,3.698-4.272,9.493-1.371,13.845L3.593,82.786z"/> </g> </g> <g> <g> <path style="fill:#5B5869;" d="M199.049,5.278c0,27.917-22.632,50.549-50.549,50.549S97.951,33.196,97.951,5.278"/> </g> </g> <g> <g> <path style="fill:#5B5869;" d="M245.385,224.323c-34.897,0-63.186,28.289-63.186,63.186c0,1.368,0.059,2.722,0.144,4.068 l67.11-67.11C248.107,224.382,246.753,224.323,245.385,224.323z"/> </g> </g> <g> <path style="fill:#BDC3C7;" d="M182.641,291.281c2.867-30.046,26.769-53.948,56.815-56.815l9.998-9.998 c-1.346-0.086-2.7-0.144-4.068-0.144c-34.897,0-63.186,28.289-63.186,63.186c0,1.368,0.059,2.722,0.144,4.068L182.641,291.281z"/> </g> <g> <g> <path style="fill:#5B5869;" d="M114.801,287.509c0-34.897-28.289-63.186-63.186-63.186c-1.368,0-2.722,0.059-4.068,0.144 l67.11,67.11C114.742,290.231,114.801,288.877,114.801,287.509z"/> </g> </g> <g> <path style="fill:#BDC3C7;" d="M114.528,291.449l0.129,0.129c0.086-1.346,0.144-2.7,0.144-4.068 c0-34.897-28.289-63.186-63.186-63.186c-1.368,0-2.722,0.059-4.068,0.144l9.83,9.83 C87.672,237.038,111.787,261.153,114.528,291.449z"/> </g> <g> <circle style="fill:#FFFFFF;" cx="148.5" cy="123.226" r="50.549"/> </g> <g> <g> <g> <path style="fill:#F36E81;" d="M182.199,120.53c0-10.212-7.544-16.85-16.85-16.85s-16.85,7.544-16.85,16.85 c0-9.306-7.544-16.85-16.85-16.85s-16.85,6.127-16.85,16.85c0,17.36,33.699,33.699,33.699,33.699S182.199,138.4,182.199,120.53z "/> </g> </g> </g> <g style="opacity:0.45;"> <g> <path style="fill:#BDC3C7;" d="M165.35,103.68c-4.031,0-7.728,1.419-10.628,3.78c6.223,2.266,10.628,7.968,10.628,15.765 c0,11.138-13.089,21.481-22.953,27.695c3.614,2.098,6.103,3.308,6.103,3.308s33.699-15.828,33.699-33.699 C182.199,110.318,174.655,103.68,165.35,103.68z"/> </g> </g> </g> </g>
</svg>