<!DOCTYPE svg PUBLIC "-//W3C//DTD SVG 1.1//EN" "http://www.w3.org/Graphics/SVG/1.1/DTD/svg11.dtd">
<!-- Uploaded to: SVG Repo, www.svgrepo.com, Transformed by: SVG Repo Mixer Tools -->
<svg height="100px" width="100px" version="1.1" id="Layer_1" xmlns="http://www.w3.org/2000/svg" xmlns:xlink="http://www.w3.org/1999/xlink" viewBox="0 0 511.998 511.998" xml:space="preserve" fill="#000000">
<g id="SVGRepo_bgCarrier" stroke-width="0"/>
<g id="SVGRepo_tracerCarrier" stroke-linecap="round" stroke-linejoin="round"/>
<g id="SVGRepo_iconCarrier"> <g> <path style="fill:#58595B;" d="M256.569,8.644L256.569,8.644c-5.875,0-11.556,0.808-16.964,2.281 c-0.138,0.032-0.284,0.052-0.418,0.09c-27.158,7.586-47.08,32.512-47.08,62.091v4.222h128.921v-4.223 C321.029,37.504,292.169,8.644,256.569,8.644z"/> <path style="fill:#58595B;" d="M192.108,435.8v3.291c0,29.578,19.922,54.503,47.079,62.091c0.246,0.068,0.489,0.12,0.732,0.172 c5.314,1.42,10.888,2.199,16.649,2.199l0,0c35.601,0,64.461-28.86,64.461-64.461v-3.291h-128.92V435.8z"/> </g> <polygon style="fill:#E6E7E8;" points="321.029,397.22 192.108,397.22 192.108,370.918 194.318,366.835 194.413,341.768 192.108,337.861 192.108,313.508 194.318,307.87 194.698,284.891 192.108,280.452 192.108,256.098 194.983,251.563 195.173,226.496 192.108,223.042 192.108,198.688 195.173,194.403 194.603,170.332 192.108,165.632 192.108,141.278 194.746,137.36 192.108,115.07 321.029,115.07 321.029,116.925 318.61,121.574 318.325,146.451 321.029,149.991 321.029,174.335 318.231,179.115 318.04,204.277 321.029,207.4 321.029,231.744 317.946,238.365 317.851,260.963 321.029,264.811 321.029,289.153 318.516,294.387 318.516,317.555 321.029,322.221 321.029,346.494 318.516,350.883 318.04,375.76 321.029,379.561 "/> <polygon style="fill:#D1D3D4;" points="289.27,397.22 321.029,397.22 321.029,379.561 318.04,375.76 318.516,350.883 321.029,346.494 321.029,322.221 318.516,317.555 318.516,294.387 321.029,289.153 321.029,264.811 317.851,260.963 317.946,238.365 321.029,231.744 321.029,207.4 318.04,204.277 318.231,179.115 321.029,174.335 321.029,149.991 318.325,146.451 318.61,121.574 321.029,116.925 321.029,115.07 289.27,115.07 "/> <path style="fill:#414042;" d="M256.569,8.644L256.569,8.644c-6.023,0-11.847,0.844-17.376,2.389 c27.157,7.587,47.084,32.494,47.084,62.072v4.223h34.752v-4.223C321.029,37.504,292.169,8.644,256.569,8.644z"/> <polygon style="fill:#ED4850;" points="192.108,113.029 192.108,141.278 267.409,112.836 "/> <path style="fill:#414042;" d="M286.277,435.8v3.291c0,29.577-19.928,54.485-47.084,62.072c5.531,1.545,11.353,2.389,17.376,2.389 l0,0c35.601,0,64.461-28.86,64.461-64.461v-3.291h-34.752V435.8z"/> <path style="fill:#D1D3D4;" d="M335.158,116.925H177.979c-3.018,0-5.465-2.446-5.465-5.465V80.235c0-3.018,2.446-5.465,5.465-5.465 h157.178c3.018,0,5.465,2.446,5.465,5.465v31.225C340.623,114.478,338.175,116.925,335.158,116.925z"/> <g> <polygon style="fill:#5A8EE8;" points="321.029,346.495 192.108,395.202 192.108,428.258 321.029,379.563 "/> <polygon style="fill:#5A8EE8;" points="321.029,116.925 192.108,165.632 192.108,198.688 321.029,149.991 "/> </g> <path style="fill:#D1D3D4;" d="M335.158,437.426H177.979c-3.018,0-5.465-2.446-5.465-5.465v-31.226c0-3.018,2.446-5.465,5.465-5.465 h157.178c3.018,0,5.465,2.446,5.465,5.465v31.225C340.623,434.978,338.175,437.426,335.158,437.426z"/> <g> <path style="fill:#BCBEC0;" d="M335.157,74.77h-35.473c3.018,0,5.465,2.446,5.465,5.465v31.225c0,3.018-2.446,5.465-5.465,5.465 h35.473c3.018,0,5.465-2.446,5.465-5.465V80.235C340.623,77.216,338.175,74.77,335.157,74.77z"/> <path style="fill:#BCBEC0;" d="M335.157,395.271h-35.473c3.018,0,5.465,2.446,5.465,5.465v31.225c0,3.018-2.446,5.465-5.465,5.465 h35.473c3.018,0,5.465-2.446,5.465-5.465v-31.225C340.623,397.717,338.175,395.271,335.157,395.271z"/> </g> <polygon style="fill:#5A8EE8;" points="321.029,231.744 192.108,280.451 192.108,313.508 321.029,264.811 "/> <g> <polygon style="fill:#ED4850;" points="321.029,174.334 192.108,223.042 192.108,256.098 321.029,207.401 "/> <polygon style="fill:#ED4850;" points="321.029,289.154 192.108,337.861 192.108,370.917 321.029,322.221 "/> </g> <path d="M334.587,125.373c7.725,0,14.01-6.285,14.01-14.01V80.137c0-7.725-6.285-14.01-14.01-14.01h-5.91 c-1.455-15.439-7.781-30.042-18.184-41.703c-3.141-3.522-8.545-3.831-12.065-0.688c-3.522,3.141-3.83,8.543-0.688,12.065 c7.602,8.523,12.364,19.098,13.751,30.326H200.503c3.403-27.597,26.993-49.035,55.496-49.035c4.719,0,8.546-3.826,8.546-8.546 S260.718,0,255.999,0c-37.935,0-69.193,29.086-72.672,66.126h-5.916c-7.725,0-14.01,6.285-14.01,14.01v31.225 c0,7.725,6.285,14.01,14.01,14.01h5.582v261.254h-5.582c-7.725,0-14.01,6.285-14.01,14.01v31.225c0,7.725,6.285,14.01,14.01,14.01 h5.916c3.48,37.04,34.738,66.126,72.672,66.126s69.193-29.086,72.672-66.126h5.916c7.725,0,14.01-6.285,14.01-14.01v-31.225 c0-7.725-6.285-14.01-14.01-14.01h-5.582V125.373H334.587z M180.49,83.218h11.048h128.921h11.048v25.064h-11.048H191.538H180.49 V83.218z M200.084,286.26l111.83-42.25v39.139l-111.83,42.25L200.084,286.26L200.084,286.26z M311.914,225.739l-111.83,42.25V228.85 l111.83-42.25V225.739z M255.999,494.909c-28.503,0-52.092-21.438-55.494-49.035h110.988 C308.091,473.47,284.5,494.909,255.999,494.909z M331.507,428.781h-11.048H191.538H180.49v-25.064h11.048h128.921h11.048 L331.507,428.781L331.507,428.781z M200.084,386.627V343.67l111.83-42.25v39.138l-53.389,20.17c-4.415,1.668-6.642,6.6-4.974,11.015 c1.292,3.421,4.543,5.527,7.996,5.527c1.003,0,2.024-0.178,3.018-0.554l47.348-17.888v27.797h-111.83V386.627z M311.914,168.329 l-111.83,42.25V171.44l48.702-18.399c4.415-1.668,6.642-6.6,4.974-11.015c-1.667-4.414-6.597-6.643-11.015-4.974l-42.661,16.117 v-27.797h111.83V168.329z"/> </g>
</svg>