<?xml version="1.0" encoding="UTF-8"?>
<svg xmlns="http://www.w3.org/2000/svg" xmlns:xlink="http://www.w3.org/1999/xlink" width="50px" height="50px" viewBox="0 0 50 50" version="1.1">
<g id="surface1">
<path style=" stroke:none;fill-rule:nonzero;fill:rgb(0%,67.450982%,27.843139%);fill-opacity:1;" d="M 37.5 33.515625 L 37.5 39.0625 C 37.496094 40.785156 36.097656 42.183594 34.375 42.1875 L 14.0625 42.1875 L 14.0625 32.8125 L 28.125 32.8125 L 28.125 25 Z M 37.5 33.515625 "/>
<path style=" stroke:none;fill-rule:nonzero;fill:rgb(19.215687%,66.274512%,31.37255%);fill-opacity:1;" d="M 37.5 17.1875 L 37.5 33.515625 L 28.125 25 L 28.125 17.1875 Z M 37.5 17.1875 "/>
<path style=" stroke:none;fill-rule:nonzero;fill:rgb(91.764706%,26.666668%,20.784314%);fill-opacity:1;" d="M 14.0625 7.8125 L 14.0625 17.1875 L 4.6875 17.1875 Z M 14.0625 7.8125 "/>
<path style=" stroke:none;fill-rule:nonzero;fill:rgb(25.882354%,52.156866%,95.686275%);fill-opacity:1;" d="M 4.6875 17.1875 L 14.0625 17.1875 L 14.0625 34.375 L 4.6875 34.375 Z M 4.6875 17.1875 "/>
<path style=" stroke:none;fill-rule:nonzero;fill:rgb(100%,72.941178%,0%);fill-opacity:1;" d="M 37.5 10.9375 L 37.5 17.1875 L 36.71875 17.1875 L 28.125 25 L 28.125 17.1875 L 14.0625 17.1875 L 14.0625 7.8125 L 34.375 7.8125 C 36.097656 7.816406 37.496094 9.214844 37.5 10.9375 Z M 37.5 10.9375 "/>
<path style=" stroke:none;fill-rule:nonzero;fill:rgb(0%,40.000001%,85.490197%);fill-opacity:1;" d="M 14.0625 32.8125 L 14.0625 42.1875 L 7.8125 42.1875 C 6.089844 42.183594 4.691406 40.785156 4.6875 39.0625 L 4.6875 32.8125 Z M 14.0625 32.8125 "/>
<path style=" stroke:none;fill-rule:nonzero;fill:rgb(0%,67.450982%,27.843139%);fill-opacity:1;" d="M 45.3125 12.90625 L 45.3125 37.09375 C 45.3125 37.710938 44.949219 38.269531 44.382812 38.519531 C 43.820312 38.769531 43.160156 38.664062 42.703125 38.25 L 37.5 33.515625 L 28.125 25 L 36.71875 17.1875 L 37.5 16.484375 L 42.703125 11.75 C 43.160156 11.335938 43.820312 11.230469 44.382812 11.480469 C 44.949219 11.730469 45.3125 12.289062 45.3125 12.90625 Z M 45.3125 12.90625 "/>
<path style=" stroke:none;fill-rule:nonzero;fill:rgb(9.411765%,50.196081%,21.960784%);fill-opacity:1;" d="M 37.5 16.484375 L 37.5 33.515625 L 28.125 25 L 36.71875 17.1875 Z M 37.5 16.484375 "/>
</g>
</svg>
